<svg xmlns="http://www.w3.org/2000/svg" xmlns:xlink="http://www.w3.org/1999/xlink" width="2000" zoomAndPan="magnify" viewBox="0 0 1500 1499.999933" height="2000" preserveAspectRatio="xMidYMid meet" version="1.0"><defs><g/></defs><rect x="-150" width="1800" fill="#ffffff" y="-149.999993" height="1799.99992" fill-opacity="1"/><rect x="-150" width="1800" fill="#000000" y="-149.999993" height="1799.99992" fill-opacity="1"/><g fill="#8cfbff" fill-opacity="1"><g transform="translate(352.789017, 1031.249891)"><g><path d="M 280.796875 -12.796875 C 280.796875 -2.128906 254.394531 3.203125 201.59375 3.203125 C 148.800781 3.203125 122.40625 -2.128906 122.40625 -12.796875 L 122.40625 -414.40625 L 26.40625 -414.40625 C 17.332031 -414.40625 10.929688 -426.671875 7.203125 -451.203125 C 5.597656 -462.929688 4.796875 -474.925781 4.796875 -487.1875 C 4.796875 -499.457031 5.597656 -511.460938 7.203125 -523.203125 C 10.929688 -547.734375 17.332031 -560 26.40625 -560 L 374.40625 -560 C 383.46875 -560 389.863281 -547.734375 393.59375 -523.203125 C 395.195312 -511.460938 396 -499.457031 396 -487.1875 C 396 -474.925781 395.195312 -462.929688 393.59375 -451.203125 C 389.863281 -426.671875 383.46875 -414.40625 374.40625 -414.40625 L 280.796875 -414.40625 Z M 280.796875 -12.796875 "/></g></g></g><g fill="#ffffff" fill-opacity="1"><g transform="translate(722.39836, 1031.249891)"><g><path d="M 60.796875 -195.203125 C 70.929688 -187.203125 88.398438 -176.265625 113.203125 -162.390625 C 138.003906 -148.523438 161.738281 -141.59375 184.40625 -141.59375 C 207.070312 -141.59375 218.40625 -150.394531 218.40625 -168 C 218.40625 -176 215.203125 -183.066406 208.796875 -189.203125 C 202.398438 -195.335938 190.664062 -202.40625 173.59375 -210.40625 C 156.53125 -218.40625 143.734375 -224.671875 135.203125 -229.203125 C 126.671875 -233.734375 115.335938 -241.195312 101.203125 -251.59375 C 87.066406 -262 76.265625 -272.800781 68.796875 -284 C 47.460938 -314.394531 36.796875 -353.0625 36.796875 -400 C 36.796875 -446.9375 54.257812 -486.535156 89.1875 -518.796875 C 124.125 -551.066406 169.863281 -567.203125 226.40625 -567.203125 C 264.800781 -567.203125 300.265625 -563.066406 332.796875 -554.796875 C 365.328125 -546.535156 382.128906 -535.738281 383.203125 -522.40625 C 383.203125 -520.800781 383.203125 -519.195312 383.203125 -517.59375 C 383.203125 -498.925781 377.332031 -475.328125 365.59375 -446.796875 C 353.863281 -418.265625 345.597656 -402.398438 340.796875 -399.203125 C 306.660156 -416.796875 276.125 -425.59375 249.1875 -425.59375 C 222.257812 -425.59375 208.796875 -415.992188 208.796875 -396.796875 C 208.796875 -385.066406 218.664062 -374.664062 238.40625 -365.59375 C 242.664062 -363.46875 248.796875 -360.535156 256.796875 -356.796875 C 264.796875 -353.066406 273.992188 -348.664062 284.390625 -343.59375 C 294.796875 -338.53125 306 -332.128906 318 -324.390625 C 330 -316.660156 342.929688 -306.394531 356.796875 -293.59375 C 385.066406 -266.925781 399.203125 -231.726562 399.203125 -188 C 399.203125 -130.9375 383.46875 -84.269531 352 -48 C 320.53125 -11.726562 272 6.9375 206.40625 8 C 174.40625 8 145.46875 5.332031 119.59375 0 C 93.726562 -5.332031 71.195312 -15.734375 52 -31.203125 C 32.800781 -46.671875 23.203125 -65.335938 23.203125 -87.203125 C 23.203125 -109.066406 27.203125 -130.796875 35.203125 -152.390625 C 43.203125 -173.992188 51.734375 -188.265625 60.796875 -195.203125 Z M 60.796875 -195.203125 "/></g></g></g></svg>